<?xml version="1.0" encoding="UTF-8"?>
<svg width="400" height="400" xmlns="http://www.w3.org/2000/svg" xmlns:svg="http://www.w3.org/2000/svg">
 <!-- Created with SVG-edit - http://svg-edit.googlecode.com/ -->
 <defs>
  <filter height="200%" width="200%" y="-50%" x="-50%" id="svg_1_blur">
   <feGaussianBlur stdDeviation="4.8" in="SourceGraphic"/>
  </filter>
 </defs>
 <g display="inline">
  <title>Layer 1</title>
  <path filter="url(#svg_1_blur)" id="svg_1" d="m119.5,218c-15,21 -44.75,71.75 -85,122.25c-14.25,34.5 58.5,78.75 74,45.75c44.5,-67 37,-55 78.5,-122c151.5,86 197.5,-126 173.5,-183c-38,51 -41,48 -67.5,82l-72.5,10l-9.5,-72c53.5,-54 10.5,-12 64,-67c-86.5,-83 -272.5,58 -155.5,184z" stroke-width="5" stroke="#000000" fill="#7f7f7f"/>
 </g>
 <g>
  <title>Layer 2</title>
  <path id="svg_2" d="m107.417908,212.121979c-15,21 -44.749992,71.75 -84.999992,122.25c-14.25,34.5 58.5,78.75 73.999992,45.75c44.5,-67 37,-55 78.5,-122c151.5,86 197.5,-126 173.5,-183c-38,51 -41,48 -67.5,82l-72.5,10l-9.5,-72c53.5,-53.999996 10.5,-12 64,-66.999996c-86.5,-83 -272.499992,57.999996 -155.5,183.999996z" stroke-width="5" stroke="#000000" fill="#7f7f7f"/>
 </g>
</svg>